<?xml version="1.0" encoding="UTF-8"?>
<svg id="Layer_1" xmlns="http://www.w3.org/2000/svg" version="1.1" viewBox="17 0 231.99 85.84">
  <!-- Generator: Adobe Illustrator 29.3.1, SVG Export Plug-In . SVG Version: 2.1.0 Build 151)  -->
  <defs>
    <style>
      .st0 {
        fill: none;
        stroke: #fff;
        stroke-miterlimit: 10;
      }

      .st1 {
        fill: #ce0e2d;
      }

      .st2 {
        fill: #fff;
      }
    </style>
  </defs>
  <polygon class="st2" points="81.87 31.52 80.11 31.52 80.11 27.41 75.71 27.41 75.71 31.52 73.94 31.52 73.94 22.12 75.71 22.12 75.71 26.16 80.11 26.16 80.11 22.12 81.87 22.12 81.87 31.52"/>
  <path class="st2" d="M86.44,24.74c.42,0,.81.07,1.16.2.35.14.66.33.91.59.26.26.45.57.6.95.14.38.21.8.21,1.28,0,.12,0,.22-.02.3-.01.08-.03.14-.06.19-.03.05-.07.08-.11.1-.05.02-.11.03-.18.03h-4.12c.05.68.23,1.19.55,1.51.32.32.74.48,1.27.48.26,0,.48-.03.67-.09.19-.06.35-.13.49-.2.14-.07.27-.14.37-.2.11-.06.21-.09.31-.09.07,0,.12.01.17.04.05.02.09.06.12.11l.47.59c-.18.21-.38.38-.6.52-.22.14-.45.25-.69.34-.24.08-.48.14-.73.18-.25.03-.49.05-.72.05-.46,0-.9-.08-1.29-.23-.4-.15-.74-.38-1.04-.68-.29-.3-.53-.67-.69-1.12-.17-.44-.25-.96-.25-1.54,0-.46.07-.88.22-1.28.15-.4.36-.75.63-1.05.28-.3.61-.53,1.01-.71.4-.17.84-.26,1.34-.26M86.47,25.89c-.47,0-.83.13-1.1.4-.26.26-.43.64-.51,1.12h3.02c0-.21-.03-.4-.09-.59-.06-.18-.14-.35-.26-.49-.12-.14-.26-.25-.44-.33-.18-.08-.39-.12-.62-.12"/>
  <path class="st2" d="M89.82,24.85h1.27c.12,0,.22.03.31.09.08.06.14.13.16.21l.96,3.56c.05.2.09.39.13.57.03.18.07.37.09.56.05-.19.1-.37.15-.56.05-.19.11-.38.17-.57l1.1-3.58c.03-.09.08-.16.16-.21.08-.05.17-.08.27-.08h.71c.12,0,.21.03.29.08.08.06.13.13.16.21l1.09,3.64c.06.19.11.37.15.54.05.18.09.35.13.53.03-.19.06-.37.1-.56.04-.18.08-.38.14-.58l.99-3.56c.02-.09.07-.16.16-.21.08-.06.18-.09.29-.09h1.21l-2.11,6.67h-1.29c-.14,0-.24-.1-.3-.29l-1.2-3.85c-.04-.12-.07-.25-.11-.38-.03-.13-.06-.25-.08-.38-.03.13-.05.26-.08.39-.03.13-.07.26-.11.39l-1.22,3.84c-.06.19-.18.29-.35.29h-1.23l-2.11-6.67Z"/>
  <rect class="st2" x="101.02" y="21.86" width="1.6" height="9.66"/>
  <path class="st2" d="M107.19,24.74c.42,0,.81.07,1.16.2.35.14.66.33.91.59.26.26.45.57.6.95.14.38.21.8.21,1.28,0,.12,0,.22-.02.3-.01.08-.03.14-.06.19-.03.05-.07.08-.11.1-.05.02-.11.03-.18.03h-4.12c.05.68.23,1.19.55,1.51.32.32.74.48,1.27.48.26,0,.48-.03.67-.09.19-.06.35-.13.49-.2.14-.07.27-.14.37-.2.11-.06.21-.09.31-.09.07,0,.12.01.17.04.05.02.09.06.12.11l.47.59c-.18.21-.38.38-.6.52-.22.14-.45.25-.69.34-.24.08-.48.14-.73.18-.25.03-.49.05-.72.05-.46,0-.9-.08-1.29-.23-.4-.15-.74-.38-1.04-.68-.29-.3-.53-.67-.69-1.12-.17-.44-.25-.96-.25-1.54,0-.46.07-.88.22-1.28.15-.4.36-.75.63-1.05.28-.3.61-.53,1.01-.71.4-.17.84-.26,1.34-.26M107.22,25.89c-.47,0-.83.13-1.1.4-.26.26-.43.64-.51,1.12h3.02c0-.21-.03-.4-.09-.59-.06-.18-.14-.35-.26-.49-.12-.14-.26-.25-.44-.33-.18-.08-.39-.12-.62-.12"/>
  <path class="st2" d="M113.57,31.62c-.58,0-1.02-.16-1.33-.49s-.47-.78-.47-1.36v-3.72h-.68c-.09,0-.16-.03-.22-.08-.06-.06-.09-.14-.09-.25v-.64l1.07-.18.34-1.82c.02-.09.06-.15.12-.2.06-.05.14-.07.24-.07h.83v2.1h1.76v1.14h-1.76v3.61c0,.21.05.37.16.49.1.12.24.18.42.18.1,0,.18-.01.25-.03.07-.03.13-.05.18-.08.05-.03.09-.05.13-.07.04-.02.08-.04.12-.04.05,0,.09.01.12.04.03.02.06.06.1.11l.48.78c-.23.2-.5.34-.81.44-.3.1-.62.15-.94.15"/>
  <path class="st2" d="M118.6,31.62c-.58,0-1.02-.16-1.33-.49-.31-.33-.47-.78-.47-1.36v-3.72h-.68c-.09,0-.16-.03-.22-.08-.06-.06-.09-.14-.09-.25v-.64l1.07-.18.34-1.82c.02-.09.06-.15.12-.2.06-.05.14-.07.24-.07h.83v2.1h1.75v1.14h-1.75v3.61c0,.21.05.37.15.49.1.12.24.18.42.18.1,0,.18-.01.25-.03.07-.03.12-.05.17-.08.05-.03.09-.05.13-.07.04-.02.08-.04.12-.04.05,0,.09.01.12.04.03.02.06.06.1.11l.48.78c-.23.2-.5.34-.81.44-.3.1-.62.15-.94.15"/>
  <path class="st2" d="M125.85,28.21v3.31h-1.75v-9.4h3.06c.63,0,1.17.07,1.63.22.46.15.84.35,1.14.62.3.26.52.58.66.95.14.37.22.77.22,1.21s-.08.87-.23,1.25c-.15.38-.38.71-.68.98-.3.27-.68.49-1.14.64-.46.15-.99.23-1.6.23h-1.31ZM125.85,26.84h1.31c.32,0,.6-.04.84-.12.24-.08.43-.19.59-.34.16-.15.27-.33.35-.55.08-.21.12-.45.12-.72s-.04-.48-.12-.68c-.08-.2-.2-.38-.35-.52-.16-.14-.35-.25-.59-.33-.24-.08-.52-.11-.84-.11h-1.31v3.37Z"/>
  <path class="st2" d="M136.98,31.52h-.72c-.15,0-.27-.02-.36-.07-.09-.04-.15-.14-.2-.28l-.14-.47c-.17.15-.34.28-.5.4-.16.12-.33.21-.5.29-.17.08-.36.14-.55.18-.2.04-.41.06-.65.06-.28,0-.54-.04-.78-.11-.24-.08-.44-.19-.61-.34-.17-.15-.3-.34-.4-.57-.1-.23-.14-.49-.14-.79,0-.25.07-.5.2-.75.13-.25.35-.47.66-.67.31-.2.72-.36,1.23-.49.51-.13,1.15-.2,1.91-.2v-.39c0-.45-.1-.78-.28-1-.19-.22-.46-.32-.82-.32-.26,0-.48.03-.65.09-.17.06-.32.13-.45.2-.13.08-.25.15-.35.21-.11.06-.23.09-.36.09-.11,0-.2-.03-.28-.08-.08-.06-.14-.13-.19-.21l-.29-.51c.77-.7,1.69-1.05,2.77-1.05.39,0,.74.06,1.04.19.31.13.57.31.78.53.21.23.37.5.48.81.11.32.17.66.17,1.04v4.21ZM133.86,30.51c.16,0,.32-.01.46-.04.14-.03.27-.07.39-.13.12-.06.24-.13.36-.22.11-.09.23-.19.35-.31v-1.12c-.47,0-.86.03-1.17.09-.32.06-.57.13-.76.23-.19.09-.33.2-.41.32-.08.12-.12.25-.12.4,0,.28.08.49.25.61.17.12.38.18.65.18"/>
  <path class="st2" d="M143.25,26.26c-.05.06-.09.11-.14.14-.04.03-.11.05-.2.05-.08,0-.16-.02-.24-.07-.08-.05-.17-.11-.28-.17-.11-.06-.24-.12-.39-.17-.15-.05-.33-.07-.56-.07-.28,0-.53.05-.74.15-.21.1-.39.25-.53.44-.14.19-.25.42-.32.69-.07.27-.1.58-.1.92s.04.67.11.95c.07.28.18.51.33.7.14.19.32.33.52.43.2.1.43.15.69.15s.46-.03.62-.1c.16-.06.29-.13.4-.21.11-.07.2-.14.28-.21.08-.06.17-.09.27-.09.13,0,.23.05.29.15l.46.58c-.18.21-.37.38-.58.52-.21.14-.42.25-.65.34-.22.08-.45.14-.69.18-.24.03-.47.05-.71.05-.41,0-.8-.08-1.16-.23-.36-.15-.68-.38-.95-.67-.27-.29-.48-.65-.64-1.08-.16-.43-.24-.91-.24-1.46,0-.49.07-.94.21-1.36.14-.42.35-.78.62-1.09.27-.3.61-.54,1.01-.72.4-.17.87-.26,1.39-.26.5,0,.93.08,1.31.24.38.16.71.39,1.01.69l-.42.59Z"/>
  <path class="st2" d="M146.39,21.86v5.53h.3c.11,0,.19-.01.25-.05.06-.03.12-.09.19-.17l1.66-2.05c.07-.09.15-.15.23-.21.08-.05.19-.07.33-.07h1.47l-2.07,2.48c-.07.09-.15.18-.23.25-.08.08-.16.14-.25.2.09.07.17.14.24.23.07.09.14.18.21.28l2.22,3.24h-1.45c-.13,0-.23-.02-.32-.06-.09-.04-.16-.12-.23-.22l-1.7-2.53c-.07-.1-.13-.16-.2-.2-.06-.03-.16-.05-.29-.05h-.36v3.05h-1.6v-9.66h1.6Z"/>
  <path class="st2" d="M157.16,31.52h-.72c-.15,0-.27-.02-.36-.07-.09-.04-.15-.14-.2-.28l-.14-.47c-.17.15-.34.28-.5.4-.16.12-.33.21-.5.29-.17.08-.36.14-.55.18-.2.04-.41.06-.65.06-.28,0-.54-.04-.78-.11-.24-.08-.44-.19-.61-.34-.17-.15-.3-.34-.4-.57-.1-.23-.14-.49-.14-.79,0-.25.07-.5.2-.75.13-.25.35-.47.66-.67.31-.2.72-.36,1.23-.49.51-.13,1.15-.2,1.91-.2v-.39c0-.45-.1-.78-.28-1-.19-.22-.46-.32-.82-.32-.26,0-.48.03-.65.09-.17.06-.32.13-.45.2-.13.08-.25.15-.35.21-.11.06-.23.09-.36.09-.11,0-.2-.03-.28-.08-.08-.06-.14-.13-.19-.21l-.29-.51c.77-.7,1.69-1.05,2.77-1.05.39,0,.74.06,1.04.19.31.13.57.31.78.53.21.23.37.5.48.81.11.32.17.66.17,1.04v4.21ZM154.04,30.51c.16,0,.32-.01.46-.04.14-.03.27-.07.39-.13.12-.06.24-.13.36-.22.11-.09.23-.19.35-.31v-1.12c-.47,0-.86.03-1.17.09-.32.06-.57.13-.76.23-.19.09-.33.2-.41.32-.08.12-.12.25-.12.4,0,.28.08.49.25.61.17.12.38.18.65.18"/>
  <path class="st2" d="M158.74,31.52v-6.67h.94c.16,0,.28.03.34.09.07.06.11.17.13.31l.1.81c.24-.41.52-.74.84-.97.32-.24.68-.36,1.08-.36.33,0,.6.07.82.23l-.21,1.2c-.01.08-.04.13-.08.17-.04.03-.1.05-.18.05-.06,0-.15-.02-.27-.05-.11-.03-.26-.05-.45-.05-.33,0-.62.09-.86.28-.24.18-.44.45-.61.81v4.15h-1.6Z"/>
  <path class="st2" d="M168.74,31.52c-.21,0-.34-.1-.41-.29l-.13-.64c-.14.16-.28.3-.44.42-.15.13-.32.23-.49.32-.18.09-.36.16-.57.21-.2.05-.42.07-.65.07-.36,0-.7-.08-1-.23s-.56-.37-.78-.66c-.22-.29-.39-.64-.51-1.07-.12-.42-.18-.91-.18-1.46,0-.49.07-.95.2-1.38.13-.42.33-.79.58-1.1.25-.31.55-.56.9-.73.35-.17.74-.26,1.18-.26.37,0,.69.06.96.18.26.12.5.28.71.48v-3.52h1.6v9.66h-.98ZM166.6,30.34c.33,0,.62-.07.85-.21.23-.14.46-.34.66-.59v-2.99c-.18-.22-.38-.38-.6-.47-.21-.09-.45-.14-.69-.14s-.46.05-.66.14c-.2.09-.36.23-.5.41-.14.18-.24.42-.32.7-.07.29-.11.62-.11,1.01s.03.72.09.99c.06.27.15.49.27.66.12.17.26.29.43.37s.36.11.57.11"/>
  <polygon class="st2" points="179.98 22.12 179.98 23.51 175.82 23.51 175.82 26.11 179.1 26.11 179.1 27.46 175.82 27.46 175.82 30.12 179.98 30.12 179.98 31.52 174.06 31.52 174.06 22.12 179.98 22.12"/>
  <path class="st2" d="M181.41,31.52v-6.67h.98c.21,0,.34.1.41.29l.11.53c.14-.14.28-.26.43-.38.15-.11.31-.21.47-.29.17-.08.35-.14.54-.19.19-.04.4-.06.62-.06.36,0,.69.06.97.18.28.12.52.3.7.52.19.22.33.49.43.8.1.31.15.65.15,1.02v4.24h-1.61v-4.24c0-.41-.09-.72-.28-.95-.19-.22-.47-.33-.85-.33-.28,0-.54.06-.78.19-.24.12-.47.3-.69.51v4.82h-1.6Z"/>
  <path class="st2" d="M190.99,31.62c-.58,0-1.02-.16-1.33-.49s-.47-.78-.47-1.36v-3.72h-.68c-.09,0-.16-.03-.22-.08-.06-.06-.09-.14-.09-.25v-.64l1.07-.18.34-1.82c.02-.09.06-.15.12-.2.06-.05.14-.07.24-.07h.83v2.1h1.76v1.14h-1.76v3.61c0,.21.05.37.16.49.1.12.24.18.42.18.1,0,.18-.01.25-.03.07-.03.13-.05.18-.08.05-.03.09-.05.13-.07.04-.02.08-.04.12-.04.05,0,.09.01.12.04.03.02.06.06.1.11l.48.78c-.23.2-.5.34-.81.44-.3.1-.62.15-.94.15"/>
  <path class="st2" d="M196.58,24.74c.42,0,.81.07,1.16.2.35.14.66.33.91.59.26.26.45.57.6.95s.22.8.22,1.28c0,.12,0,.22-.02.3-.01.08-.03.14-.06.19-.03.05-.07.08-.11.1-.05.02-.11.03-.18.03h-4.12c.05.68.23,1.19.55,1.51.32.32.74.48,1.27.48.26,0,.48-.03.67-.09.19-.06.35-.13.49-.2.14-.07.26-.14.37-.2.11-.06.21-.09.31-.09.07,0,.12.01.17.04.05.02.09.06.12.11l.47.59c-.18.21-.38.38-.6.52-.22.14-.45.25-.69.34-.24.08-.48.14-.73.18-.25.03-.49.05-.73.05-.46,0-.89-.08-1.29-.23-.4-.15-.74-.38-1.04-.68-.29-.3-.53-.67-.69-1.12-.17-.44-.25-.96-.25-1.54,0-.46.07-.88.22-1.28.15-.4.36-.75.63-1.05.28-.3.61-.53,1.01-.71.4-.17.84-.26,1.34-.26M196.62,25.89c-.47,0-.83.13-1.1.4-.26.26-.43.64-.51,1.12h3.01c0-.21-.03-.4-.08-.59-.06-.18-.14-.35-.26-.49-.12-.14-.26-.25-.44-.33-.18-.08-.39-.12-.62-.12"/>
  <path class="st2" d="M200.78,31.52v-6.67h.94c.16,0,.28.03.34.09.07.06.11.17.13.31l.1.81c.24-.41.52-.74.84-.97.32-.24.68-.36,1.08-.36.33,0,.6.07.82.23l-.21,1.2c-.01.08-.04.13-.08.17-.04.03-.1.05-.18.05-.06,0-.15-.02-.27-.05-.11-.03-.26-.05-.45-.05-.33,0-.62.09-.86.28-.24.18-.44.45-.61.81v4.15h-1.6Z"/>
  <path class="st2" d="M206.09,33.69v-8.85h.98c.1,0,.19.03.27.07.07.05.12.12.14.22l.13.62c.27-.31.58-.56.93-.75.35-.19.76-.29,1.23-.29.36,0,.7.08,1,.23.3.15.56.37.78.66.22.29.39.64.51,1.07.12.42.18.91.18,1.45,0,.5-.07.96-.2,1.38-.13.43-.33.79-.58,1.11-.25.31-.55.56-.9.73-.35.18-.75.26-1.19.26-.38,0-.7-.06-.96-.17-.26-.11-.5-.27-.71-.48v2.73h-1.6ZM209.21,25.99c-.33,0-.62.07-.85.21-.24.14-.46.34-.66.6v2.99c.18.22.38.38.6.47.21.09.45.13.69.13s.46-.05.66-.14c.2-.09.36-.23.5-.42.14-.19.24-.42.32-.71.07-.29.11-.62.11-1.01s-.03-.72-.09-.99c-.06-.27-.15-.49-.27-.66-.12-.17-.26-.29-.43-.37-.17-.08-.36-.12-.57-.12"/>
  <path class="st2" d="M213.44,31.52v-6.67h.94c.16,0,.28.03.34.09.07.06.11.17.13.31l.1.81c.24-.41.52-.74.84-.97.32-.24.68-.36,1.08-.36.33,0,.6.07.82.23l-.21,1.2c-.01.08-.04.13-.08.17-.04.03-.1.05-.18.05-.06,0-.15-.02-.27-.05-.11-.03-.26-.05-.45-.05-.33,0-.62.09-.86.28-.24.18-.44.45-.61.81v4.15h-1.6Z"/>
  <path class="st2" d="M220.7,22.9c0,.14-.03.27-.08.39-.06.12-.13.23-.22.32-.09.09-.2.16-.33.22-.13.05-.26.08-.4.08s-.27-.03-.39-.08c-.12-.06-.23-.13-.32-.22-.09-.09-.16-.2-.22-.32-.05-.12-.08-.25-.08-.39s.03-.28.08-.4c.05-.12.13-.23.22-.32.09-.09.2-.16.32-.22.12-.05.26-.08.39-.08s.28.03.4.08c.13.05.24.13.33.22.09.09.17.2.22.32.06.13.08.26.08.4M220.46,31.52h-1.6v-6.67h1.6v6.67Z"/>
  <path class="st2" d="M226.23,26.15c-.04.07-.09.12-.14.15-.05.03-.11.04-.18.04-.08,0-.16-.02-.25-.06-.09-.04-.19-.09-.31-.15s-.25-.1-.4-.15c-.15-.04-.33-.06-.53-.06-.32,0-.57.07-.75.2-.18.13-.27.31-.27.53,0,.14.05.26.14.36.09.1.22.18.37.26s.33.14.52.2c.2.06.4.12.6.19.2.07.4.15.6.24.2.09.37.2.52.34.15.14.28.3.37.49.09.19.14.42.14.69,0,.32-.06.62-.17.89-.12.27-.29.5-.51.7-.23.2-.5.35-.84.46-.33.11-.71.17-1.14.17-.23,0-.46-.02-.67-.06-.22-.04-.43-.1-.63-.17-.2-.07-.39-.16-.56-.26-.17-.1-.32-.21-.45-.32l.37-.61c.05-.07.1-.13.17-.17.07-.04.15-.06.25-.06s.19.03.28.08c.09.06.19.12.31.18.12.07.25.13.41.18.16.06.36.08.6.08.19,0,.35-.02.49-.07.14-.04.25-.1.34-.18.09-.07.15-.16.2-.26.04-.1.06-.2.06-.3,0-.16-.05-.28-.14-.38-.09-.1-.22-.19-.37-.26-.15-.07-.33-.14-.53-.2-.2-.06-.4-.12-.6-.19-.21-.07-.41-.15-.61-.24-.2-.09-.37-.21-.53-.36-.15-.14-.28-.32-.37-.53-.09-.21-.14-.46-.14-.75,0-.27.05-.53.16-.78.11-.25.27-.46.48-.65.21-.18.47-.33.79-.44.32-.11.68-.16,1.09-.16.46,0,.88.07,1.26.23.38.15.69.35.94.6l-.36.58Z"/>
  <path class="st2" d="M230.71,24.74c.42,0,.81.07,1.16.2.35.14.66.33.91.59.26.26.45.57.6.95s.22.8.22,1.28c0,.12,0,.22-.02.3-.01.08-.03.14-.06.19-.03.05-.07.08-.11.1-.05.02-.11.03-.18.03h-4.12c.05.68.23,1.19.55,1.51.32.32.74.48,1.27.48.26,0,.48-.03.67-.09.19-.06.35-.13.49-.2.14-.07.26-.14.37-.2.11-.06.21-.09.31-.09.07,0,.12.01.17.04.05.02.09.06.12.11l.47.59c-.18.21-.38.38-.6.52-.22.14-.45.25-.69.34-.24.08-.48.14-.73.18-.25.03-.49.05-.73.05-.46,0-.89-.08-1.29-.23-.4-.15-.74-.38-1.04-.68-.29-.3-.53-.67-.69-1.12-.17-.44-.25-.96-.25-1.54,0-.46.07-.88.22-1.28.15-.4.36-.75.63-1.05.28-.3.61-.53,1.01-.71.4-.17.84-.26,1.34-.26M230.74,25.89c-.47,0-.83.13-1.1.4-.26.26-.43.64-.51,1.12h3.01c0-.21-.03-.4-.08-.59-.06-.18-.14-.35-.26-.49-.12-.14-.26-.25-.44-.33-.18-.08-.39-.12-.62-.12"/>
  <path class="st2" d="M82.29,39.82c0,.69-.11,1.32-.34,1.9-.23.58-.55,1.07-.97,1.49-.42.42-.92.74-1.5.97-.59.23-1.23.35-1.94.35h-3.59v-9.4h3.59c.71,0,1.36.12,1.94.35.58.23,1.09.56,1.5.97.42.41.74.91.97,1.49.23.58.34,1.21.34,1.9M80.5,39.82c0-.52-.07-.98-.21-1.39-.14-.41-.34-.76-.59-1.04-.26-.28-.57-.5-.93-.65-.37-.15-.78-.23-1.24-.23h-1.83v6.62h1.83c.46,0,.87-.08,1.24-.23.37-.15.68-.37.93-.65.26-.28.45-.63.59-1.04.14-.41.21-.87.21-1.39"/>
  <path class="st2" d="M88.8,44.52h-.72c-.15,0-.27-.02-.36-.07-.09-.04-.15-.14-.2-.28l-.14-.47c-.17.15-.34.28-.5.4-.16.12-.33.21-.5.29-.17.08-.36.14-.55.18-.2.04-.41.06-.65.06-.28,0-.54-.04-.78-.11-.24-.08-.44-.19-.61-.34-.17-.15-.3-.34-.4-.57-.1-.23-.14-.49-.14-.79,0-.25.07-.5.2-.75.13-.25.35-.47.66-.67.31-.2.72-.36,1.23-.49.51-.13,1.15-.2,1.91-.2v-.39c0-.45-.1-.78-.28-1-.19-.22-.46-.32-.82-.32-.26,0-.48.03-.65.09-.17.06-.32.13-.45.2-.13.08-.25.15-.35.21-.11.06-.23.09-.36.09-.11,0-.2-.03-.28-.08-.08-.06-.14-.13-.19-.21l-.29-.51c.77-.7,1.69-1.05,2.77-1.05.39,0,.74.06,1.04.19.31.13.57.31.78.53.21.23.37.5.48.81.11.32.17.66.17,1.04v4.21ZM85.68,43.51c.16,0,.32-.01.46-.04.14-.03.27-.07.39-.13.12-.06.24-.13.36-.22.11-.09.23-.19.35-.31v-1.12c-.47,0-.86.03-1.17.09-.32.06-.57.13-.76.23-.19.09-.33.2-.41.32-.08.12-.12.25-.12.4,0,.28.08.49.25.61.17.12.38.18.65.18"/>
  <path class="st2" d="M92.57,44.62c-.58,0-1.02-.16-1.33-.49-.31-.33-.47-.78-.47-1.36v-3.72h-.68c-.09,0-.16-.03-.22-.08-.06-.06-.09-.14-.09-.25v-.64l1.07-.18.34-1.82c.02-.09.06-.15.12-.2.06-.05.14-.07.24-.07h.83v2.1h1.75v1.14h-1.75v3.61c0,.21.05.37.15.49.1.12.24.18.42.18.1,0,.18-.01.25-.03.07-.03.12-.05.17-.08.05-.03.09-.05.13-.07.04-.02.08-.04.12-.04.05,0,.09.01.12.04.03.02.06.06.1.11l.48.78c-.23.2-.5.34-.81.44-.3.1-.62.15-.94.15"/>
  <path class="st2" d="M100.63,44.52h-.72c-.15,0-.27-.02-.36-.07-.09-.04-.15-.14-.19-.28l-.14-.47c-.17.15-.34.28-.5.4s-.33.21-.5.29c-.17.08-.36.14-.55.18-.19.04-.41.06-.65.06-.28,0-.54-.04-.78-.11-.24-.08-.44-.19-.61-.34-.17-.15-.3-.34-.4-.57-.1-.23-.14-.49-.14-.79,0-.25.07-.5.2-.75.13-.25.35-.47.66-.67.31-.2.72-.36,1.23-.49.51-.13,1.15-.2,1.91-.2v-.39c0-.45-.09-.78-.28-1-.19-.22-.46-.32-.82-.32-.26,0-.48.03-.65.09-.17.06-.32.13-.45.2-.13.08-.24.15-.35.21-.11.06-.23.09-.36.09-.11,0-.2-.03-.28-.08-.08-.06-.14-.13-.19-.21l-.29-.51c.77-.7,1.69-1.05,2.78-1.05.39,0,.74.06,1.04.19.31.13.57.31.78.53.21.23.37.5.48.81.11.32.16.66.16,1.04v4.21ZM97.51,43.51c.16,0,.32-.01.46-.04.14-.03.27-.07.39-.13.12-.06.24-.13.36-.22.11-.09.23-.19.35-.31v-1.12c-.47,0-.86.03-1.17.09-.32.06-.57.13-.76.23-.19.09-.33.2-.41.32-.08.12-.12.25-.12.4,0,.28.08.49.25.61.17.12.38.18.65.18"/>
  <path class="st2" d="M109.85,36.83c-.05.1-.1.16-.16.2-.06.04-.14.06-.23.06s-.18-.03-.29-.1c-.11-.07-.24-.14-.38-.22-.15-.08-.32-.16-.52-.23-.2-.07-.43-.1-.7-.1-.24,0-.45.03-.63.09-.18.06-.33.14-.46.24-.12.11-.22.23-.28.37-.06.15-.09.3-.09.48,0,.22.06.4.18.55.12.15.29.27.49.38.21.1.44.2.7.28.26.08.52.17.8.26.27.09.54.2.8.32.26.12.49.28.7.47.2.19.37.42.49.69.12.27.19.6.19.99,0,.43-.07.82-.22,1.19-.15.37-.36.69-.64.97-.28.28-.62.49-1.02.65-.4.16-.86.24-1.38.24-.3,0-.59-.03-.88-.09-.29-.06-.57-.14-.83-.25-.27-.11-.52-.24-.75-.39-.23-.15-.44-.32-.62-.51l.51-.84c.05-.06.1-.11.17-.15s.14-.06.22-.06c.11,0,.23.04.35.13.13.09.27.19.45.3.17.11.37.21.6.29.23.09.51.13.84.13.5,0,.88-.12,1.16-.35.27-.24.41-.57.41-1.02,0-.25-.06-.45-.18-.6-.12-.16-.29-.29-.49-.39-.2-.1-.43-.2-.7-.27-.26-.07-.52-.15-.79-.24-.27-.09-.53-.19-.79-.31-.26-.12-.49-.28-.69-.47-.2-.19-.37-.44-.49-.73-.12-.29-.19-.65-.19-1.08,0-.34.07-.68.21-1,.14-.32.33-.61.6-.86.26-.25.58-.45.97-.6.38-.15.82-.23,1.31-.23.56,0,1.07.09,1.53.26.47.17.87.42,1.2.73l-.43.82Z"/>
  <path class="st2" d="M116.38,39.26c-.05.06-.09.11-.14.14-.05.03-.11.05-.2.05s-.16-.02-.24-.07c-.08-.05-.17-.11-.28-.17-.11-.06-.24-.12-.39-.17-.15-.05-.34-.07-.56-.07-.28,0-.53.05-.74.15-.21.1-.39.25-.53.44-.14.19-.25.42-.32.69-.07.27-.1.58-.1.92s.04.67.11.95c.08.28.19.51.33.7.14.19.32.33.52.43.2.1.43.15.69.15s.46-.03.62-.1c.16-.06.29-.13.4-.21.11-.07.2-.14.28-.21.08-.06.17-.09.27-.09.13,0,.23.05.29.15l.46.58c-.18.21-.37.38-.58.52-.21.14-.42.25-.65.34-.22.08-.45.14-.69.18-.24.03-.47.05-.71.05-.41,0-.8-.08-1.16-.23-.36-.15-.68-.38-.95-.67-.27-.29-.48-.65-.64-1.08-.16-.43-.24-.91-.24-1.46,0-.49.07-.94.21-1.36.14-.42.35-.78.62-1.09.27-.3.61-.54,1.01-.72.4-.17.87-.26,1.39-.26.5,0,.93.08,1.31.24.38.16.71.39,1.01.69l-.42.59Z"/>
  <path class="st2" d="M119.85,35.9c0,.14-.03.27-.08.39-.06.12-.13.23-.22.32-.09.09-.2.16-.33.22-.13.05-.26.08-.4.08s-.27-.03-.39-.08c-.12-.06-.23-.13-.32-.22-.09-.09-.16-.2-.22-.32-.05-.12-.08-.25-.08-.39s.03-.28.08-.4c.05-.12.13-.23.22-.32.09-.09.2-.16.32-.22.12-.05.25-.08.39-.08s.28.03.4.08c.13.05.23.13.33.22.09.09.17.2.22.32.06.13.08.26.08.4M119.61,44.52h-1.6v-6.67h1.6v6.67Z"/>
  <path class="st2" d="M124.18,37.74c.42,0,.81.07,1.16.2.35.14.66.33.91.59.26.26.45.57.6.95.14.38.21.8.21,1.28,0,.12,0,.22-.02.3-.01.08-.03.14-.06.19-.03.05-.07.08-.11.1-.05.02-.11.03-.18.03h-4.12c.05.68.23,1.19.55,1.51.32.32.74.48,1.27.48.26,0,.48-.03.67-.09.19-.06.35-.13.49-.2.14-.07.27-.14.37-.2.11-.06.21-.09.31-.09.07,0,.12.01.17.04.05.02.09.06.12.11l.47.59c-.18.21-.38.38-.6.52-.22.14-.45.25-.69.34-.24.08-.48.14-.73.18-.25.03-.49.05-.72.05-.46,0-.9-.08-1.29-.23-.4-.15-.74-.38-1.04-.68-.29-.3-.53-.67-.69-1.12-.17-.44-.25-.96-.25-1.54,0-.46.07-.88.22-1.28.15-.4.36-.75.63-1.05.28-.3.61-.53,1.01-.71.4-.17.84-.26,1.34-.26M124.21,38.89c-.47,0-.83.13-1.1.4-.26.26-.43.64-.51,1.12h3.02c0-.21-.03-.4-.09-.59-.06-.18-.14-.35-.26-.49-.12-.14-.26-.25-.44-.33-.18-.08-.39-.12-.62-.12"/>
  <path class="st2" d="M128.37,44.52v-6.67h.98c.21,0,.34.1.41.29l.11.53c.14-.14.28-.26.43-.38.15-.11.31-.21.47-.29.17-.08.35-.14.54-.19.19-.04.4-.06.62-.06.36,0,.69.06.97.18.28.12.52.3.7.52.19.22.33.49.43.8.1.31.15.65.15,1.02v4.24h-1.61v-4.24c0-.41-.09-.72-.28-.95-.19-.22-.47-.33-.85-.33-.28,0-.54.06-.78.19-.24.12-.47.3-.69.51v4.82h-1.6Z"/>
  <path class="st2" d="M140.45,39.26c-.05.06-.09.11-.14.14-.05.03-.11.05-.2.05s-.16-.02-.24-.07c-.08-.05-.17-.11-.28-.17-.11-.06-.24-.12-.39-.17-.15-.05-.34-.07-.56-.07-.28,0-.53.05-.74.15-.21.1-.39.25-.53.44-.14.19-.25.42-.32.69-.07.27-.1.58-.1.92s.04.67.11.95c.08.28.19.51.33.7.14.19.32.33.52.43.2.1.43.15.69.15s.46-.03.62-.1c.16-.06.29-.13.4-.21.11-.07.2-.14.28-.21.08-.06.17-.09.27-.09.13,0,.23.05.29.15l.46.58c-.18.21-.37.38-.58.52-.21.14-.42.25-.65.34-.22.08-.45.14-.69.18-.24.03-.47.05-.71.05-.41,0-.8-.08-1.16-.23-.36-.15-.68-.38-.95-.67-.27-.29-.48-.65-.64-1.08-.16-.43-.24-.91-.24-1.46,0-.49.07-.94.21-1.36.14-.42.35-.78.62-1.09.27-.3.61-.54,1.01-.72.4-.17.87-.26,1.39-.26.5,0,.93.08,1.31.24.38.16.71.39,1.01.69l-.42.59Z"/>
  <path class="st2" d="M144.72,37.74c.42,0,.81.07,1.16.2.35.14.66.33.91.59.26.26.45.57.6.95s.22.8.22,1.28c0,.12,0,.22-.02.3-.01.08-.03.14-.06.19-.03.05-.07.08-.11.1-.05.02-.11.03-.18.03h-4.12c.05.68.23,1.19.55,1.51.32.32.74.48,1.27.48.26,0,.48-.03.67-.09.19-.06.35-.13.49-.2.14-.07.26-.14.37-.2.11-.06.21-.09.31-.09.07,0,.12.01.17.04.05.02.09.06.12.11l.47.59c-.18.21-.38.38-.6.52-.22.14-.45.25-.69.34-.24.08-.48.14-.73.18-.25.03-.49.05-.73.05-.46,0-.89-.08-1.29-.23-.4-.15-.74-.38-1.04-.68-.29-.3-.53-.67-.69-1.12-.17-.44-.25-.96-.25-1.54,0-.46.07-.88.22-1.28.15-.4.36-.75.63-1.05.28-.3.61-.53,1.01-.71.4-.17.84-.26,1.34-.26M144.75,38.89c-.47,0-.83.13-1.1.4-.26.26-.43.64-.51,1.12h3.01c0-.21-.03-.4-.08-.59-.06-.18-.14-.35-.26-.49-.12-.14-.26-.25-.44-.33-.18-.08-.39-.12-.62-.12"/>
  <rect class="st2" x="151.72" y="35.12" width="1.76" height="9.4"/>
  <path class="st2" d="M155.5,44.52v-6.67h.98c.21,0,.34.1.41.29l.11.53c.13-.14.28-.26.43-.38.15-.11.31-.21.47-.29.17-.08.35-.14.54-.19.19-.04.4-.06.62-.06.36,0,.69.06.97.18.28.12.52.3.71.52.19.22.33.49.43.8.1.31.15.65.15,1.02v4.24h-1.61v-4.24c0-.41-.09-.72-.28-.95-.19-.22-.47-.33-.85-.33-.28,0-.54.06-.78.19-.24.12-.47.3-.69.51v4.82h-1.6Z"/>
  <path class="st2" d="M166.85,39.15c-.04.07-.09.12-.14.15-.05.03-.11.04-.18.04-.08,0-.16-.02-.25-.06-.09-.04-.19-.09-.31-.15s-.25-.1-.4-.15c-.15-.04-.33-.06-.53-.06-.32,0-.57.07-.75.2-.18.13-.27.31-.27.53,0,.14.05.26.14.36s.22.18.37.26c.15.07.33.14.52.2.19.06.4.12.6.19.2.07.4.15.6.24.2.09.37.2.52.34.15.14.28.3.37.49.09.19.14.42.14.69,0,.32-.06.62-.18.89-.12.27-.29.5-.51.7-.22.2-.5.35-.83.46-.33.11-.71.17-1.14.17-.23,0-.46-.02-.67-.06-.22-.04-.43-.1-.63-.17-.2-.07-.39-.16-.56-.26-.17-.1-.32-.21-.45-.32l.37-.61c.05-.07.1-.13.17-.17.07-.04.15-.06.25-.06s.19.03.28.08c.09.06.19.12.31.18.12.07.26.13.41.18.16.06.36.08.6.08.19,0,.35-.02.49-.07.14-.04.25-.1.34-.18.09-.07.15-.16.2-.26s.06-.2.06-.3c0-.16-.05-.28-.14-.38-.09-.1-.22-.19-.37-.26-.15-.07-.33-.14-.53-.2-.2-.06-.4-.12-.6-.19-.21-.07-.41-.15-.61-.24-.2-.09-.37-.21-.53-.36-.15-.14-.28-.32-.37-.53-.09-.21-.14-.46-.14-.75,0-.27.05-.53.16-.78.11-.25.27-.46.48-.65.21-.18.47-.33.79-.44.32-.11.68-.16,1.09-.16.46,0,.88.07,1.25.23.38.15.69.35.94.6l-.36.58Z"/>
  <path class="st2" d="M170.76,44.62c-.58,0-1.02-.16-1.33-.49s-.47-.78-.47-1.36v-3.72h-.68c-.09,0-.16-.03-.22-.08-.06-.06-.09-.14-.09-.25v-.64l1.07-.18.34-1.82c.02-.09.06-.15.12-.2.06-.05.14-.07.24-.07h.83v2.1h1.76v1.14h-1.76v3.61c0,.21.05.37.16.49.1.12.24.18.42.18.1,0,.18-.01.25-.03.07-.03.13-.05.18-.08.05-.03.09-.05.13-.07.04-.02.08-.04.12-.04.05,0,.09.01.12.04.03.02.06.06.1.11l.48.78c-.23.2-.5.34-.81.44-.3.1-.62.15-.94.15"/>
  <path class="st2" d="M175.55,35.9c0,.14-.03.27-.08.39-.06.12-.13.23-.22.32-.09.09-.2.16-.33.22-.13.05-.26.08-.4.08s-.27-.03-.39-.08c-.12-.06-.23-.13-.32-.22-.09-.09-.16-.2-.22-.32-.05-.12-.08-.25-.08-.39s.03-.28.08-.4c.05-.12.13-.23.22-.32.09-.09.2-.16.32-.22.12-.05.26-.08.39-.08s.28.03.4.08c.13.05.23.13.33.22.09.09.17.2.22.32.06.13.08.26.08.4M175.31,44.52h-1.6v-6.67h1.6v6.67Z"/>
  <path class="st2" d="M179.31,44.62c-.58,0-1.02-.16-1.33-.49s-.47-.78-.47-1.36v-3.72h-.68c-.09,0-.16-.03-.22-.08-.06-.06-.09-.14-.09-.25v-.64l1.07-.18.34-1.82c.02-.09.06-.15.12-.2.06-.05.14-.07.24-.07h.83v2.1h1.76v1.14h-1.76v3.61c0,.21.05.37.16.49.1.12.24.18.42.18.1,0,.18-.01.25-.03.07-.03.13-.05.18-.08.05-.03.09-.05.13-.07.04-.02.08-.04.12-.04.05,0,.09.01.12.04.03.02.06.06.1.11l.48.78c-.23.2-.5.34-.81.44-.3.1-.62.15-.94.15"/>
  <path class="st2" d="M183.62,37.85v4.24c0,.41.09.72.28.95.19.22.47.33.85.33.28,0,.54-.06.78-.19.24-.12.47-.29.69-.51v-4.82h1.61v6.67h-.98c-.21,0-.34-.1-.41-.29l-.11-.53c-.14.14-.28.26-.43.38-.15.12-.3.21-.47.29-.17.08-.35.14-.54.19-.19.04-.4.07-.62.07-.36,0-.69-.06-.97-.18-.28-.12-.51-.3-.7-.52-.19-.22-.34-.49-.43-.8-.1-.31-.14-.65-.14-1.02v-4.24h1.6Z"/>
  <path class="st2" d="M191.74,44.62c-.58,0-1.02-.16-1.33-.49-.31-.33-.47-.78-.47-1.36v-3.72h-.68c-.09,0-.16-.03-.22-.08-.06-.06-.09-.14-.09-.25v-.64l1.07-.18.34-1.82c.02-.09.06-.15.12-.2.06-.05.14-.07.24-.07h.83v2.1h1.75v1.14h-1.75v3.61c0,.21.05.37.15.49.1.12.24.18.42.18.1,0,.18-.01.25-.03.07-.03.12-.05.17-.08.05-.03.09-.05.13-.07.04-.02.08-.04.12-.04.05,0,.09.01.12.04.03.02.06.06.1.11l.48.78c-.23.2-.5.34-.81.44-.3.1-.62.15-.94.15"/>
  <path class="st2" d="M197.33,37.74c.42,0,.81.07,1.16.2.35.14.66.33.91.59.26.26.45.57.6.95.14.38.21.8.21,1.28,0,.12,0,.22-.02.3-.01.08-.03.14-.06.19-.03.05-.07.08-.11.1-.05.02-.11.03-.18.03h-4.12c.05.68.23,1.19.55,1.51.32.32.74.48,1.27.48.26,0,.48-.03.67-.09.19-.06.35-.13.49-.2.14-.07.27-.14.37-.2.11-.06.21-.09.31-.09.07,0,.12.01.17.04.05.02.09.06.12.11l.47.59c-.18.21-.38.38-.6.52-.22.14-.45.25-.69.34-.24.08-.48.14-.73.18-.25.03-.49.05-.72.05-.46,0-.9-.08-1.29-.23-.4-.15-.74-.38-1.04-.68-.29-.3-.53-.67-.69-1.12-.17-.44-.25-.96-.25-1.54,0-.46.07-.88.22-1.28.15-.4.36-.75.63-1.05.28-.3.61-.53,1.01-.71.4-.17.84-.26,1.34-.26M197.36,38.89c-.47,0-.83.13-1.1.4-.26.26-.43.64-.51,1.12h3.02c0-.21-.03-.4-.09-.59-.06-.18-.14-.35-.26-.49-.12-.14-.26-.25-.44-.33-.18-.08-.39-.12-.62-.12"/>
  <polygon class="st2" points="62.14 43.16 62.14 34.84 50 34.84 50 28.73 52.53 28.73 52.53 20.42 36.89 20.42 36.89 28.73 39.25 28.73 39.25 34.84 30.6 34.84 30.6 28.73 32.96 28.73 32.96 20.42 17.33 20.42 17.33 28.73 19.86 28.73 19.86 43.91 24.72 48.1 29.64 48.1 29.64 54.73 27.11 54.73 27.11 63.04 42.74 63.04 42.74 54.73 40.39 54.73 40.39 53.19 48.86 53.19 48.86 54.73 46.5 54.73 46.5 63.04 62.14 63.04 62.14 54.73 59.61 54.73 59.61 43.16 62.14 43.16"/>
  <path class="st1" d="M60.95,41.97v-5.95h-12.14v-8.47h2.53v-5.95h-13.26v5.95h2.36v8.47h-11.02v-8.47h2.36v-5.95h-13.27v5.95h2.53v15.82l4.12,3.55h5.66v9h-2.53v5.94h13.27v-5.94h-2.36v-3.9h10.84v3.9h-2.36v5.94h13.26v-5.94h-2.53v-13.94h2.53ZM46.28,45.71l3.7-3.28v3.28h-3.7Z"/>
  <polygon class="st2" points="41.56 41.97 39.2 41.97 39.2 45.79 44.38 45.79 47.69 42.85 47.69 26.43 50.22 26.43 50.22 22.73 39.2 22.73 39.2 26.43 41.56 26.43 41.56 41.97"/>
  <polygon class="st2" points="30.82 41.97 28.3 41.97 28.3 26.43 30.65 26.43 30.65 22.73 19.64 22.73 19.64 26.43 22.17 26.43 22.17 42.85 25.58 45.79 30.82 45.79 30.82 41.97"/>
  <polygon class="st2" points="59.83 40.85 59.83 37.15 48.81 37.15 48.81 40.85 51.17 40.85 51.17 46.91 38.08 46.91 38.08 40.85 40.44 40.85 40.44 37.15 29.42 37.15 29.42 40.85 31.95 40.85 31.95 57.03 29.42 57.03 29.42 60.73 40.44 60.73 40.44 57.03 38.08 57.03 38.08 50.89 51.17 50.89 51.17 57.03 48.81 57.03 48.81 60.73 59.83 60.73 59.83 57.03 57.3 57.03 57.3 40.85 59.83 40.85"/>
  <line class="st0" x1="73.67" y1="48.94" x2="233.6" y2="48.94"/>
  <path class="st2" d="M76.96,62.16c.35,0,.65-.06.93-.18.27-.12.5-.28.69-.49.19-.21.33-.46.43-.75.1-.29.15-.61.15-.96v-5.07h1.12v5.07c0,.48-.08.93-.23,1.34-.15.41-.37.77-.66,1.07-.29.3-.64.54-1.05.71-.41.17-.87.26-1.39.26s-.97-.09-1.39-.26c-.41-.17-.76-.41-1.05-.71-.29-.3-.51-.66-.66-1.07-.15-.41-.23-.86-.23-1.34v-5.07h1.12v5.07c0,.35.05.67.15.96.1.29.24.54.43.75.19.21.42.37.69.49.27.12.58.18.93.18"/>
  <path class="st2" d="M83.78,54.75s.1.08.17.15l4.84,6.29c-.01-.1-.02-.2-.02-.29,0-.09,0-.19,0-.28v-5.91h.99v8.35h-.57c-.09,0-.16-.02-.22-.05-.06-.03-.12-.08-.18-.16l-4.83-6.28c0,.1.01.19.02.28,0,.09,0,.18,0,.26v5.95h-.99v-8.35h.58c.1,0,.18.01.22.04"/>
  <rect class="st2" x="92.75" y="54.71" width="1.13" height="8.35"/>
  <path class="st2" d="M95.91,54.71h.9c.1,0,.18.02.25.08.06.05.11.11.14.19l2.36,5.89c.05.13.1.28.15.43.05.15.09.32.13.48.03-.17.07-.33.11-.48.04-.15.09-.3.14-.43l2.35-5.89c.03-.07.08-.13.14-.18.07-.06.15-.09.24-.09h.91l-3.4,8.35h-1.02l-3.4-8.35Z"/>
  <polygon class="st2" points="110.7 54.71 110.7 55.63 106.69 55.63 106.69 58.4 109.94 58.4 109.94 59.29 106.69 59.29 106.69 62.14 110.7 62.14 110.7 63.06 105.55 63.06 105.55 54.71 110.7 54.71"/>
  <path class="st2" d="M114.32,59.57v3.48h-1.12v-8.35h2.36c.53,0,.98.05,1.37.16.38.11.7.26.95.46.25.2.43.45.56.73.12.29.18.61.18.96,0,.29-.05.57-.14.83-.09.26-.23.49-.4.69-.18.2-.39.38-.65.52-.26.14-.54.25-.87.33.14.08.26.2.37.36l2.43,3.31h-1c-.21,0-.36-.08-.45-.24l-2.17-2.98c-.07-.09-.14-.16-.22-.2-.08-.04-.19-.06-.35-.06h-.86ZM114.32,58.75h1.18c.33,0,.62-.04.87-.12.25-.08.46-.19.63-.34.17-.15.29-.32.38-.52.09-.2.13-.43.13-.67,0-.5-.16-.87-.49-1.12-.33-.25-.82-.38-1.46-.38h-1.24v3.15Z"/>
  <path class="st2" d="M125.62,56.01c-.03.06-.07.1-.11.13-.04.03-.09.04-.15.04s-.14-.03-.23-.1c-.09-.07-.2-.14-.33-.22-.13-.08-.3-.15-.48-.22-.19-.07-.42-.1-.68-.1-.25,0-.47.03-.67.1-.19.07-.36.16-.49.28-.13.12-.23.25-.29.41-.07.16-.1.33-.1.51,0,.23.06.43.17.58s.27.28.46.39c.19.11.4.2.64.28.24.08.48.16.73.25.25.09.5.18.73.29.24.11.45.24.64.4.19.16.34.36.46.6.11.24.17.53.17.87,0,.37-.06.71-.19,1.03-.12.32-.3.6-.54.84-.24.24-.53.42-.88.56-.35.13-.74.2-1.19.2-.54,0-1.03-.1-1.48-.29-.44-.2-.82-.46-1.14-.79l.33-.54s.07-.08.11-.11c.05-.03.1-.04.15-.04.08,0,.18.04.28.13.1.09.23.18.39.29.16.1.35.2.57.29.22.09.5.13.82.13.27,0,.51-.04.72-.11.21-.07.39-.18.53-.31.15-.13.26-.29.33-.48.08-.19.12-.4.12-.62,0-.25-.06-.46-.17-.62-.12-.16-.27-.3-.45-.4-.18-.11-.4-.2-.64-.28-.24-.07-.48-.15-.73-.23-.25-.08-.5-.17-.73-.28-.24-.1-.45-.24-.64-.41-.18-.17-.34-.38-.45-.63-.11-.25-.17-.56-.17-.93,0-.29.06-.58.17-.86.12-.27.28-.52.5-.73.22-.21.49-.39.81-.51.32-.13.69-.19,1.1-.19.47,0,.89.07,1.28.22.38.15.72.36,1.01.64l-.27.54Z"/>
  <rect class="st2" x="128.48" y="54.71" width="1.13" height="8.35"/>
  <polygon class="st2" points="138.29 54.71 138.29 55.66 135.59 55.66 135.59 63.06 134.47 63.06 134.47 55.66 131.76 55.66 131.76 54.71 138.29 54.71"/>
  <path class="st2" d="M143.45,59.73v3.32h-1.12v-3.32l-3.06-5.03h.99c.1,0,.18.02.24.08.06.05.11.11.15.19l1.91,3.24c.08.14.14.26.2.38.05.12.1.24.14.36.04-.12.09-.24.14-.36.05-.12.11-.25.19-.38l1.91-3.24c.03-.06.08-.12.14-.18.06-.06.14-.08.24-.08h1l-3.06,5.03Z"/>
  <path class="st2" d="M158.91,58.88c0,.62-.1,1.2-.3,1.72-.2.52-.48.97-.84,1.35-.36.38-.79.67-1.3.88-.51.21-1.07.31-1.68.31s-1.17-.1-1.68-.31c-.5-.21-.94-.5-1.3-.88-.36-.38-.64-.83-.84-1.35-.2-.52-.3-1.1-.3-1.72s.1-1.2.3-1.72c.2-.52.48-.97.84-1.35.36-.38.79-.67,1.3-.88.51-.21,1.07-.32,1.68-.32s1.17.11,1.68.32c.51.21.94.5,1.3.88.36.38.64.83.84,1.35.2.52.3,1.1.3,1.72M157.75,58.88c0-.51-.07-.97-.21-1.38-.14-.41-.34-.75-.59-1.03-.26-.28-.57-.5-.93-.65-.36-.15-.77-.23-1.22-.23s-.85.08-1.22.23c-.36.15-.68.37-.93.65-.26.28-.46.63-.6,1.03-.14.41-.21.87-.21,1.38s.07.97.21,1.38c.14.4.34.75.6,1.03.26.28.57.5.93.65.37.15.77.22,1.22.22s.86-.07,1.22-.22c.37-.15.68-.37.93-.65.26-.28.45-.63.59-1.03.14-.41.21-.87.21-1.38"/>
  <polygon class="st2" points="166.35 54.71 166.35 55.63 162.34 55.63 162.34 58.55 165.77 58.55 165.77 59.47 162.34 59.47 162.34 63.06 161.21 63.06 161.21 54.71 166.35 54.71"/>
  <polygon class="st2" points="178.48 63.05 176.5 63.05 176.5 59.47 173.05 59.47 173.05 63.05 171.07 63.05 171.07 54.57 173.05 54.57 173.05 58.12 176.5 58.12 176.5 54.57 178.48 54.57 178.48 63.05"/>
  <path class="st2" d="M188.55,58.81c0,.61-.11,1.18-.32,1.71-.21.53-.51.99-.89,1.38-.38.39-.85.7-1.39.92-.54.22-1.14.33-1.8.33s-1.26-.11-1.8-.33c-.54-.22-1.01-.53-1.4-.92-.39-.39-.68-.85-.9-1.38-.21-.53-.32-1.1-.32-1.71s.11-1.18.32-1.71.51-.99.9-1.38c.39-.39.85-.69,1.4-.91.54-.22,1.14-.33,1.8-.33s1.26.11,1.8.34c.54.22,1.01.53,1.39.92.38.39.68.85.89,1.38.21.53.32,1.1.32,1.71M186.53,58.81c0-.42-.05-.8-.16-1.13-.11-.34-.26-.62-.47-.85-.2-.23-.45-.41-.75-.54-.3-.12-.63-.19-1.01-.19s-.72.06-1.02.19c-.3.12-.55.3-.75.54-.2.23-.36.52-.47.85s-.16.71-.16,1.13.05.8.16,1.14c.11.34.27.62.47.85s.46.41.75.53c.3.12.63.18,1.02.18s.71-.06,1.01-.18c.29-.12.54-.3.75-.53.21-.23.36-.52.47-.85.11-.34.16-.72.16-1.14"/>
  <path class="st2" d="M193.31,61.5c.26,0,.5-.04.71-.13.21-.09.39-.21.53-.38.15-.16.25-.36.33-.6.07-.23.11-.5.11-.8v-5.03h1.97v5.03c0,.52-.08,1-.25,1.43-.17.44-.41.81-.72,1.12-.31.32-.7.56-1.15.74-.45.18-.96.26-1.52.26s-1.08-.09-1.53-.26c-.45-.17-.83-.42-1.15-.74-.31-.31-.55-.69-.72-1.12-.17-.43-.25-.91-.25-1.43v-5.03h1.97v5.02c0,.3.04.57.11.8.08.24.18.43.33.6.14.17.32.29.53.38.21.09.44.13.71.13"/>
  <path class="st2" d="M203.26,56.29c-.06.09-.12.16-.18.21-.06.05-.15.07-.25.07-.09,0-.18-.03-.29-.08-.1-.06-.22-.12-.35-.19-.13-.07-.28-.13-.45-.19-.17-.06-.36-.08-.57-.08-.37,0-.65.08-.82.24-.18.16-.27.37-.27.64,0,.17.05.31.16.43.11.11.25.21.43.29.18.08.38.16.61.22.23.07.46.14.7.23.24.08.47.18.7.29.23.11.43.26.61.43.17.18.32.39.43.64.11.25.16.55.16.91,0,.39-.07.76-.2,1.1-.14.34-.33.64-.59.89-.26.26-.58.46-.96.6-.38.15-.81.22-1.29.22-.26,0-.53-.03-.81-.08-.28-.05-.54-.13-.79-.23-.26-.1-.5-.22-.72-.35-.23-.13-.42-.29-.59-.45l.58-.92c.04-.07.1-.13.18-.17s.16-.06.25-.06c.12,0,.23.04.35.11.12.07.25.16.4.24.15.09.32.17.52.25.19.07.42.11.69.11.35,0,.64-.08.83-.24.2-.16.3-.41.3-.75,0-.2-.06-.36-.16-.48-.11-.12-.25-.23-.43-.31-.18-.08-.38-.15-.6-.22-.23-.06-.46-.13-.69-.21-.24-.07-.47-.17-.69-.28-.23-.11-.43-.26-.6-.44-.17-.18-.32-.4-.43-.68-.11-.27-.16-.6-.16-1,0-.32.06-.63.19-.93.13-.3.32-.57.56-.81.25-.24.55-.43.91-.57.36-.14.78-.21,1.24-.21.26,0,.51.02.76.06.25.04.48.1.7.18.22.08.43.18.62.29.19.11.36.24.52.38l-.49.91Z"/>
  <polygon class="st2" points="211.3 54.57 211.3 56.13 208.91 56.13 208.91 63.05 206.94 63.05 206.94 56.13 204.56 56.13 204.56 54.57 211.3 54.57"/>
  <path class="st2" d="M220.43,58.81c0,.61-.11,1.18-.32,1.71-.21.53-.51.99-.89,1.38-.39.39-.85.7-1.39.92-.54.22-1.14.33-1.8.33s-1.26-.11-1.81-.33c-.54-.22-1.01-.53-1.4-.92-.39-.39-.68-.85-.9-1.38-.21-.53-.32-1.1-.32-1.71s.11-1.18.32-1.71c.21-.53.51-.99.9-1.38.39-.39.85-.69,1.4-.91.54-.22,1.15-.33,1.81-.33s1.26.11,1.8.34c.54.22,1,.53,1.39.92.38.39.68.85.89,1.38.21.53.32,1.1.32,1.71M218.42,58.81c0-.42-.05-.8-.16-1.13s-.27-.62-.47-.85c-.21-.23-.45-.41-.75-.54-.3-.12-.63-.19-1.01-.19s-.72.06-1.02.19c-.3.12-.55.3-.75.54-.2.23-.36.52-.47.85-.11.34-.16.71-.16,1.13s.05.8.16,1.14c.11.34.27.62.47.85.21.23.46.41.75.53.3.12.64.18,1.02.18s.71-.06,1.01-.18c.3-.12.54-.3.75-.53.2-.23.36-.52.47-.85.11-.34.16-.72.16-1.14"/>
  <path class="st2" d="M222.92,54.58c.06,0,.11.02.16.04.05.02.09.05.13.09.04.04.09.09.15.16l4.03,5.1c-.02-.16-.03-.32-.03-.48,0-.15-.01-.3-.01-.43v-4.49h1.74v8.49h-1.03c-.15,0-.28-.02-.39-.07-.1-.05-.2-.13-.3-.26l-4-5.06c.01.15.02.29.03.43,0,.14.01.28.01.4v4.55h-1.74v-8.49h1.04c.09,0,.16,0,.22.01"/>
</svg>
